<svg xmlns="http://www.w3.org/2000/svg" xmlns:xlink="http://www.w3.org/1999/xlink" width="500" zoomAndPan="magnify" viewBox="0 0 375 374.999991" height="500" preserveAspectRatio="xMidYMid meet" version="1.0"><path fill="#e8d0a9" d="M 309.46875 216.234375 C 316.300781 179.535156 324.226562 143.046875 331.132812 106.371094 C 333.195312 95.3125 326.953125 81.171875 314.871094 79.414062 C 309.546875 77.9375 303.300781 83.617188 305.492188 89.046875 C 306.179688 93.605469 311.378906 94.117188 314.871094 95.289062 C 315.945312 98.246094 317.90625 101.304688 316.65625 104.589844 C 315.886719 108.527344 315.085938 112.457031 314.308594 116.394531 L 136.449219 116.394531 C 132.929688 116.394531 130.078125 119.246094 130.078125 122.765625 C 130.078125 126.285156 132.929688 129.136719 136.449219 129.136719 L 311.773438 129.136719 C 307.019531 153.003906 302.207031 176.871094 297.519531 200.765625 C 296.476562 205.734375 295.734375 210.855469 293.644531 215.546875 C 289.898438 217 285.71875 216.261719 281.820312 216.464844 C 235.570312 216.335938 189.3125 216.4375 143.089844 216.410156 C 131.339844 166.308594 119.746094 116.183594 107.972656 66.082031 C 106.46875 56.628906 98.390625 47.914062 88.351562 48.269531 C 76.347656 48.324219 64.316406 47.761719 52.34375 48.601562 C 45.742188 50.867188 45.742188 60.628906 52.214844 63.101562 C 64.855469 64.300781 77.625 62.773438 90.261719 63.839844 C 93.292969 65.316406 92.734375 69.523438 93.90625 72.277344 C 107.71875 131.832031 121.65625 191.359375 135.722656 250.890625 C 137.53125 260.597656 146.78125 268.347656 156.824219 267.378906 C 206.210938 267.300781 255.597656 267.558594 304.957031 267.25 C 314.386719 267.558594 314.4375 251.984375 305.007812 252.214844 C 260.71875 251.910156 216.40625 252.140625 172.113281 252.089844 C 165.460938 251.933594 158.710938 252.699219 152.136719 251.375 C 149.207031 245.179688 148.417969 238.25 146.660156 231.703125 C 194.261719 231.703125 241.863281 231.726562 289.46875 231.703125 C 298.71875 232.492188 308.09375 225.480469 309.46875 216.234375 Z M 309.46875 216.234375 " fill-opacity="1" fill-rule="nonzero"/><path fill="#e8d0a9" d="M 162.277344 273.011719 C 153.5625 274.71875 146.324219 281.980469 144.640625 290.695312 C 141.789062 302.699219 150.351562 315.796875 162.53125 317.859375 C 175.148438 320.765625 188.679688 311.03125 189.75 298.109375 C 192.144531 283.152344 176.957031 269.265625 162.277344 273.011719 Z M 173.335938 299.589844 C 170.890625 303.613281 164.671875 304.40625 161.585938 300.660156 C 157.355469 296.914062 159.675781 289.421875 164.949219 288.097656 C 171.222656 285.699219 177.769531 294.3125 173.335938 299.589844 Z M 173.335938 299.589844 " fill-opacity="1" fill-rule="nonzero"/><path fill="#e8d0a9" d="M 274.636719 272.960938 C 257.945312 275.507812 250.324219 298.113281 261.789062 310.371094 C 272.136719 323.46875 295.558594 319.417969 300.65625 303.414062 C 307.378906 287.484375 291.425781 268.726562 274.636719 272.960938 Z M 283.324219 301.730469 C 275.5 307.820312 266.378906 293.929688 274.992188 289.089844 C 282.816406 282.972656 291.988281 296.886719 283.324219 301.730469 Z M 283.324219 301.730469 " fill-opacity="1" fill-rule="nonzero"/></svg>